<?xml version="1.0" encoding="utf-8"?>
<!-- Generator: Adobe Illustrator 18.1.1, SVG Export Plug-In . SVG Version: 6.00 Build 0)  -->
<svg version="1.1" id="Ebene_1" xmlns="http://www.w3.org/2000/svg" xmlns:xlink="http://www.w3.org/1999/xlink" x="0px" y="0px"
	 viewBox="0 0 974 974" enable-background="new 0 0 974 974" xml:space="preserve">
<path d="M338.6,611.4c-7.4,15.9-16.1,30-27.6,42.3c-29.4,31.4-65.6,47.7-108.5,49.2c-30.8,1.1-61-2.9-89.2-16.2
	c-47.1-22.4-73-59.5-76-112c-0.1-1.3,0-2.6,0-4.4c28.4,0,56.6,0,85.3,0c0.6,3.2,1.1,6.6,1.9,9.9c6.2,26,21.6,43.9,47.8,50.4
	c28.1,7,53,0.4,72.5-21.9c23.5-26.9,27.3-72.1,8.6-102.6c-12.8-21-31.9-31.9-56.5-33.3c-27.9-1.7-50.6,7.9-67.2,30.7
	c-1,1.4-3.1,2.8-4.7,2.8c-24,0.2-48,0.1-72,0.1c-0.6,0-1.2-0.3-2.4-0.6C64.4,428.5,78.2,351.2,92,273.6c78.5,0,156.8,0,235.4,0
	c0,23.2,0,46.4,0,70.3c-2,0-4,0-5.9,0c-54.2,0-108.3,0.1-162.5-0.1c-4.4,0-5.8,1.2-6.6,5.6c-4.9,28.9-10.1,57.8-15.2,86.6
	c-0.2,1.4-0.2,2.8-0.4,5.9c32-32.2,70-38.3,111-30.8c41.8,7.7,70.7,32.9,89.1,71.6c1.9-4.5,3.4-8.3,5.2-12
	c24.7-50.6,65.8-76.2,121.4-79.1c42.4-2.2,78.9,13.1,111.5,39.1c20.6,16.4,37.6,36.3,54.8,56c1.3,1.5,2.6,3,4.3,5
	c1.7-1.9,3.2-3.6,4.6-5.3c15.8-18.3,31.2-36.9,49.9-52.5c24-20.1,50.7-35.5,82-40.2c50-7.6,95,3,130.7,41c22.8,24.3,34.4,54,38,86.8
	c4.2,37.5-1,73.5-19.3,107c-24.3,44.4-62.4,67.5-112.4,71.4c-40.2,3.2-75.8-9.6-108.3-32.3c-22.3-15.6-41-35-59.1-55.1
	c-1.9-2.1-3.7-4.2-6.7-7.6c-1.3,1.9-2.2,3.8-3.6,5.2c-15.4,15.5-30.2,31.5-46.4,46.2c-22.7,20.6-48.8,35.7-79.3,41.1
	c-52.1,9.1-98.6-2.1-136.8-40.7c-11.4-11.5-19.9-25-26.4-39.7C340.3,615.3,339.6,613.7,338.6,611.4z M684.5,547.9
	c19.6,22.2,40.2,42.7,66.7,56.1c12.5,6.3,25.5,10.3,39.5,11.5c30.9,2.7,55-11.2,65.7-38.8c7.9-20.4,8-41.2-0.5-61.4
	c-8.8-21-24-35-47-39.1c-16.9-3-33.1-0.4-48.6,7.1C729.5,498.3,707.6,523.4,684.5,547.9z M583.9,547.9
	c-17.1-18.2-34.2-35.5-54.1-49.6c-12.7-9-26.1-16.8-41.3-20.8c-31-8.2-57.3,3.1-72.5,31.3c-11,20.4-12.8,42-5.7,63.9
	c7.6,23.5,24,37.9,48.7,42c15.3,2.5,30.2,0.6,44.7-5C536.4,597.1,561.1,574.2,583.9,547.9z"/>
</svg>
