<?xml version="1.0" encoding="utf-8"?>
<!-- Generator: Adobe Illustrator 18.1.1, SVG Export Plug-In . SVG Version: 6.00 Build 0)  -->
<svg version="1.1" id="Ebene_1" xmlns="http://www.w3.org/2000/svg" xmlns:xlink="http://www.w3.org/1999/xlink" x="0px" y="0px"
	 viewBox="0 0 999.9 1000.6" enable-background="new 0 0 999.9 1000.6" xml:space="preserve">
<path fill="#333333" d="M499.6,0C223.3,0-0.7,224-0.7,500.3c0,276.3,224,500.3,500.3,500.3c276.3,0,500.3-224,500.3-500.3
	C999.9,224,775.9,0,499.6,0z M499.6,983.8C232.5,983.8,16,767.4,16,500.3C16,233.2,232.5,16.7,499.6,16.7
	c267.1,0,483.6,216.5,483.6,483.6C983.1,767.4,766.6,983.8,499.6,983.8z"/>
<g>
	<path fill="#333333" d="M499.6,47.7C249.6,47.7,47,250.3,47,500.3c0,249.9,202.6,452.6,452.6,452.6c250,0,452.6-202.6,452.6-452.6
		C952.2,250.3,749.5,47.7,499.6,47.7z M630.3,655.1c0,35.1-8.4,63.2-26,84.3c-17.5,21.1-46.1,31.6-86.5,31.6h-20.5v-20.5
		c0-10.6-2.5-20-7.8-27.3c-3.1-4.2-5.9-8.1-9.1-11.1h37.4c15.2,0,25.7-4.6,32.6-14.6c6.9-10,9.8-22.9,9.8-39.5V581
		c0-10.1-0.8-19-3.4-26.7c24.1-5.1,43.3-15.3,56.6-30.6c0.9-1,1.7-2,2.6-3c2.2,3.5,3.8,7.2,5.6,11.1c6,13.3,8.6,28.5,8.6,45.6V655.1
		z M630.3,432.2c0,35.6-8.5,63.4-26,83.6C586.7,536,558.1,546,517.7,546h-46.3c-6.6,0-10.2,3-10.2,8.7v148.1c0,4.8,0.7,8.1,1.9,10
		c1.2,1.9,3,3.8,5.4,5.7c3.8,2.9,7.4,6.9,11.2,12.1c3.8,5.2,5.5,11.9,5.5,19.9V771h-119v-20.5c0-8.1,2.1-14.7,5.9-19.9
		c3.8-5.2,7.7-9.2,11.5-12.1c2.4-1.9,3.9-3.8,5.1-5.7c1.2-1.9,1.5-5.2,1.5-10V307.6c0-7.1-2.7-12.3-8.9-15.7
		c-4.7-2.8-8.8-7.1-12.1-12.8c-3.3-5.7-5-13.3-5-22.8V238h153.5c40.3,0,69,10.7,86.5,31.6c17.6,20.9,26,49.4,26,85V432.2z"/>
	<path fill="#333333" d="M517.7,298h-44.9c-2.8,0-5.5,1-7.9,2.7c-2.4,1.6-3.7,4.3-3.7,7.7v168c0,6.6,3.3,9.6,9.5,9.6h47
		c14.7,0,25.4-4.8,32.3-14.8c6.9-10,10.2-23.1,10.2-39.7v-78.3c0-16.6-3.4-30.1-10.2-40.1C543.2,303.2,532.4,298,517.7,298z"/>
</g>
</svg>
