<?xml version="1.0" encoding="utf-8"?>
<!-- Generator: Adobe Illustrator 18.1.1, SVG Export Plug-In . SVG Version: 6.00 Build 0)  -->
<svg version="1.1" id="Ebene_1" xmlns="http://www.w3.org/2000/svg" xmlns:xlink="http://www.w3.org/1999/xlink" x="0px" y="0px"
	 viewBox="0 0 250 250" enable-background="new 0 0 250 250" xml:space="preserve">
<g>
	<path fill="#FFFFFF" d="M125,240c-63.4,0-115-51.6-115-115C10,61.6,61.6,10,125,10c63.4,0,115,51.6,115,115
		C240,188.4,188.4,240,125,240z"/>
	<path fill="#333333" d="M125,15c29.4,0,57,11.4,77.8,32.2S235,95.6,235,125s-11.4,57-32.2,77.8S154.4,235,125,235
		s-57-11.4-77.8-32.2S15,154.4,15,125s11.4-57,32.2-77.8S95.6,15,125,15 M125,5C58.7,5,5,58.7,5,125s53.7,120,120,120
		s120-53.7,120-120S191.3,5,125,5L125,5z"/>
</g>
<g>
	<path fill="#333333" d="M146.2,122.8h-42.4c-13.8,0-25,11.2-25,25v25.7c0,2.8,2.2,5,5,5h82.4c2.8,0,5-2.2,5-5v-25.7
		C171.2,134,160,122.8,146.2,122.8z"/>
	<g>
		<path fill="#333333" d="M125,130.7c-15.6,0-28.3-12.7-28.3-28.3C96.7,86.7,109.4,74,125,74c15.6,0,28.3,12.7,28.3,28.3
			C153.3,118,140.6,130.7,125,130.7z"/>
		<path fill="#FFFFFF" d="M125,76.5c14.3,0,25.8,11.6,25.8,25.8s-11.6,25.8-25.8,25.8c-14.3,0-25.8-11.6-25.8-25.8
			S110.7,76.5,125,76.5 M125,71.5c-17,0-30.8,13.8-30.8,30.8s13.8,30.8,30.8,30.8s30.8-13.8,30.8-30.8S142,71.5,125,71.5L125,71.5z"
			/>
	</g>
</g>
</svg>
