<?xml version="1.0" encoding="utf-8"?>
<!-- Generator: Adobe Illustrator 18.1.1, SVG Export Plug-In . SVG Version: 6.00 Build 0)  -->
<svg version="1.1" id="Ebene_1" xmlns="http://www.w3.org/2000/svg" xmlns:xlink="http://www.w3.org/1999/xlink" x="0px" y="0px"
	 viewBox="0 0 250 250" enable-background="new 0 0 250 250" xml:space="preserve">
<g>
	<path fill="#FFFFFF" d="M125,240c-63.4,0-115-51.6-115-115C10,61.6,61.6,10,125,10c63.4,0,115,51.6,115,115
		C240,188.4,188.4,240,125,240z"/>
	<path fill="#333333" d="M125,15c29.4,0,57,11.4,77.8,32.2S235,95.6,235,125s-11.4,57-32.2,77.8S154.4,235,125,235
		s-57-11.4-77.8-32.2S15,154.4,15,125s11.4-57,32.2-77.8S95.6,15,125,15 M125,5C58.7,5,5,58.7,5,125s53.7,120,120,120
		s120-53.7,120-120S191.3,5,125,5L125,5z"/>
</g>
<g>
	<rect x="49.3" y="81.3" fill="#333333" width="151.4" height="87.3"/>
	<rect x="56.5" y="88.5" fill="#FFFFFF" width="136.9" height="72.9"/>
	<polyline fill="none" stroke="#333333" stroke-width="7.2157" stroke-miterlimit="10" points="56.5,88.5 125,135.2 193.5,88.5 	"/>
	<line fill="none" stroke="#333333" stroke-width="7.2157" stroke-miterlimit="10" x1="56.5" y1="161.5" x2="105.7" y2="119.9"/>
	<line fill="none" stroke="#333333" stroke-width="7.2157" stroke-miterlimit="10" x1="193.5" y1="161.5" x2="144.3" y2="119.9"/>
</g>
</svg>
