<?xml version="1.0" encoding="utf-8"?>
<!-- Generator: Adobe Illustrator 18.1.1, SVG Export Plug-In . SVG Version: 6.00 Build 0)  -->
<svg version="1.1" id="Ebene_1" xmlns="http://www.w3.org/2000/svg" xmlns:xlink="http://www.w3.org/1999/xlink" x="0px" y="0px"
	 viewBox="0 0 250 250" enable-background="new 0 0 250 250" xml:space="preserve">
<g>
	<path fill="#FFFFFF" d="M125,240c-63.4,0-115-51.6-115-115C10,61.6,61.6,10,125,10c63.4,0,115,51.6,115,115
		C240,188.4,188.4,240,125,240z"/>
	<path fill="#333333" d="M125,15c29.4,0,57,11.4,77.8,32.2S235,95.6,235,125s-11.4,57-32.2,77.8S154.4,235,125,235
		s-57-11.4-77.8-32.2S15,154.4,15,125s11.4-57,32.2-77.8S95.6,15,125,15 M125,5C58.7,5,5,58.7,5,125s53.7,120,120,120
		s120-53.7,120-120S191.3,5,125,5L125,5z"/>
</g>
<text transform="matrix(1 0 0 1 76.5464 182.3539)" fill="#333333" font-family="'SourceSansPro-Regular'" font-size="194.9861">ยง</text>
</svg>
