<?xml version="1.0" encoding="utf-8"?>
<!-- Generator: Adobe Illustrator 18.1.1, SVG Export Plug-In . SVG Version: 6.00 Build 0)  -->
<svg version="1.1" id="Ebene_1" xmlns="http://www.w3.org/2000/svg" xmlns:xlink="http://www.w3.org/1999/xlink" x="0px" y="0px"
	 viewBox="0 0 1000 1000" enable-background="new 0 0 1000 1000" xml:space="preserve">
<path fill="#333333" d="M1000.6,500.3c0,276.3-224,500.3-500.3,500.3C224,1000.6,0,776.6,0,500.3C0,224,224,0,500.3,0
	C776.6,0,1000.6,224,1000.6,500.3z"/>
<path fill="#FFFFFF" d="M983.8,500.3c0,267.1-216.5,483.5-483.6,483.5c-267.1,0-483.6-216.5-483.6-483.5
	c0-267.1,216.5-483.6,483.6-483.6C767.3,16.7,983.8,233.2,983.8,500.3z"/>
<path fill="#333333" d="M952.9,500.3c0,249.9-202.6,452.6-452.6,452.6c-250,0-452.6-202.6-452.6-452.6
	c0-250,202.6-452.6,452.6-452.6C750.2,47.7,952.9,250.3,952.9,500.3z"/>
<g>
	<path fill="#FFFFFF" d="M597.6,499.9c10.9,8.1,19.3,18.8,25.2,32c6,13.3,8.9,28.5,8.9,45.6v77.6c0,35.1-8.8,63.3-26.4,84.4
		c-17.5,21.1-46.5,31.7-86.9,31.7H367.6v-21.3c0-9.5,1.3-16.9,3.9-22.1c2.6-5.2,6.3-9,11-11.4c2.4-0.9,4.5-2.7,6.4-5.4
		c1.9-2.6,2.9-6,2.9-10.3V309.8c0-6.6-2.9-11.7-8.6-14.9c-10.5-4.8-15.7-17.3-15.7-37.8v-18.5h143.8c40.4,0,69.3,10.3,86.9,31
		c17.6,20.7,26.4,48.6,26.4,83.7v62.7c0,14.7-2.5,27.8-7.5,39.1c-5,11.4-12,21.1-21,29.2c-2.4,2.4-3.6,5-3.6,7.8
		C592.6,494.9,594.2,497.5,597.6,499.9z M462.3,457.9c0,6.2,3.1,9.2,9.3,9.2h39.9c14.7,0,25.6-4.9,32.8-14.6
		c7.1-9.7,10.7-22.9,10.7-39.5v-58.4c0-16.6-3.5-29.9-10.7-39.9c-7.1-10-18-15-32.8-15h-39.1c-3.3,0-5.8,1.1-7.5,3.2
		c-1.7,2.1-2.5,4.6-2.5,7.5V457.9z M562,581c0-16.6-3.5-29.9-10.3-39.9c-6.9-10-17.9-14.9-33.1-14.9h-46.3c-6.7,0-10,3.3-10,10
		v166.6c0,6.6,3.3,9.9,10,9.9h46.3c15.2,0,26.2-5,33.1-14.9c6.9-10,10.3-23.3,10.3-39.9V581z"/>
</g>
<rect x="438.5" y="282.5" fill="#333333" width="134" height="216"/>
<g>
	<g>
		<path fill="#FFFFFF" d="M361.5,777.1v-26.7c0-9.3,2.3-17.2,6.8-23.5c4.1-5.6,8.3-10.1,12.6-13.3c1.8-1.4,3.1-2.8,3.9-4.1
			c0-0.1,0.8-1.4,0.8-6.8V307.6c0-4.9-1.9-8.1-6.1-10.4l-0.1-0.1l-0.1-0.1c-5.7-3.4-10.4-8.4-14.2-15c-3.8-6.6-5.8-15.3-5.8-25.8
			v-23.8h159.1c42,0,72.8,11.3,91.4,33.5c18.4,21.9,27.7,51.7,27.7,88.6v77.6c0,36.9-9.4,66.4-27.8,87.6
			c-18.7,21.4-49.4,32.3-91.4,32.3h-46.3c-4,0-4,0.9-4,2.6v148.1c0,5.3,0.8,6.7,0.9,6.8c0.6,0.9,1.7,2.3,3.9,4.1
			c4.2,3.2,8.5,7.7,12.6,13.3c4.6,6.3,6.9,14.2,6.9,23.5v26.7H361.5z M473.6,304.4c-1.6,0-3,0.4-4.4,1.4c-0.4,0.3-1,0.7-1,2.6v168
			c0,4,1,4,3.3,4h47c12.7,0,21.7-4,27.4-12.4c6.1-8.9,9.2-21.2,9.2-36.5v-78.3c0-15.3-3.1-27.6-9.2-36.5
			c-5.7-8.3-14.7-12.4-27.4-12.4H473.6z"/>
		<path fill="#333333" d="M518.5,238.6c40.3,0,69.3,10.5,86.9,31.3c17.6,20.9,26.3,49.1,26.3,84.7v77.6c0,35.6-8.8,63.5-26.3,83.7
			c-17.6,20.2-46.5,30.2-86.9,30.2h-46.3c-6.6,0-10,2.8-10,8.6v148.1c0,4.8,0.6,8.1,1.8,10c1.2,1.9,3,3.8,5.3,5.7
			c3.8,2.9,7.6,6.9,11.4,12.1c3.8,5.2,5.7,11.9,5.7,19.9v20.7H367.5v-20.7c0-8.1,1.9-14.7,5.7-19.9c3.8-5.2,7.6-9.2,11.4-12.1
			c2.4-1.9,4.2-3.8,5.4-5.7c1.2-1.9,1.8-5.2,1.8-10V307.6c0-7.1-3.1-12.3-9.2-15.7c-4.7-2.8-8.8-7.1-12.1-12.8
			c-3.3-5.7-5-13.3-5-22.8v-17.8H518.5 M471.5,486.4h47c14.7,0,25.5-5,32.4-15c6.9-10,10.3-23.3,10.3-39.9v-78.3
			c0-16.6-3.4-29.9-10.3-39.9c-6.9-10-17.7-14.9-32.4-14.9h-44.9c-2.8,0-5.4,0.8-7.8,2.5c-2.4,1.6-3.6,4.1-3.6,7.5v168
			C462.2,483,465.3,486.4,471.5,486.4 M518.5,226.6H365.4h-12v12v17.8c0,11.7,2.2,21.2,6.6,28.8c4.3,7.4,9.8,13.1,16.3,17.1l0.2,0.1
			l0.2,0.1c2,1.1,2.9,2.1,2.9,5.1v395.2c0,2.3-0.2,3.5-0.3,4c-0.4,0.5-1,1.2-2.2,2.1c-4.7,3.6-9.2,8.4-13.7,14.5
			c-5.3,7.3-8,16.4-8,27v20.7v12h12h118.9h12v-12v-20.7c0-10.6-2.7-19.6-8-27c-4.5-6.2-9-10.9-13.7-14.6c-1.2-1-1.9-1.7-2.2-2.1
			c-0.1-0.5-0.3-1.8-0.3-4.1V558.1h44.3c43.8,0,76.1-11.6,95.9-34.4c19.4-22.3,29.3-53.1,29.3-91.5v-77.6c0-38.3-9.8-69.4-29.1-92.5
			C594.6,238.5,562.3,226.6,518.5,226.6L518.5,226.6z M474.2,310.4h44.3c14.1,0,19.6,5.6,22.5,9.8c5.4,7.9,8.2,19,8.2,33v78.3
			c0,14-2.8,25.2-8.2,33.1c-6,8.7-15.7,9.8-22.5,9.8h-44.3V310.4L474.2,310.4z"/>
	</g>
</g>
</svg>
