<?xml version="1.0" encoding="utf-8"?>
<!-- Generator: Adobe Illustrator 18.1.1, SVG Export Plug-In . SVG Version: 6.00 Build 0)  -->
<svg version="1.1" id="Ebene_1" xmlns="http://www.w3.org/2000/svg" xmlns:xlink="http://www.w3.org/1999/xlink" x="0px" y="0px"
	 viewBox="0 0 250 250" enable-background="new 0 0 250 250" xml:space="preserve">
<g>
	<path fill="#FFFFFF" d="M125,240c-63.4,0-115-51.6-115-115C10,61.6,61.6,10,125,10c63.4,0,115,51.6,115,115
		C240,188.4,188.4,240,125,240z"/>
	<path fill="#333333" d="M125,15c29.4,0,57,11.4,77.8,32.2S235,95.6,235,125s-11.4,57-32.2,77.8S154.4,235,125,235
		s-57-11.4-77.8-32.2S15,154.4,15,125s11.4-57,32.2-77.8S95.6,15,125,15 M125,5C58.7,5,5,58.7,5,125s53.7,120,120,120
		s120-53.7,120-120S191.3,5,125,5L125,5z"/>
</g>
<g>
	<path fill="#333333" d="M65.1,178.8c8.9-4.5,13.4-10,13.4-18.9c-0.4,0.1-0.9,0.1-1.3,0.1c-6.4,0-11.4-4.2-11.4-10.8
		c0-7.4,4.8-12.2,11.4-12.2c9.1,0,14,7.1,14,19.5c0,14-7,24.8-21.2,31.8L65.1,178.8z M100.3,178.8c8.9-4.5,13.4-10,13.4-18.9
		c-0.4,0.1-0.9,0.1-1.3,0.1c-6.4,0-11.4-4.2-11.4-10.8c0-7.4,4.8-12.2,11.4-12.2c9.1,0,14,7.1,14,19.5c0,14-7,24.8-21.2,31.8
		L100.3,178.8z"/>
	<path fill="#333333" d="M149.7,71.2c-8.9,4.5-13.4,9.9-13.4,18.9c0.4-0.1,1-0.1,1.5-0.1c6.2,0,11.4,4.2,11.4,10.8
		c0,7.4-4.9,12.2-11.4,12.2c-9.2,0-14-7.3-14-19.5c0-14,6.8-24.8,21.1-31.8L149.7,71.2z M184.9,71.2c-8.9,4.5-13.4,9.9-13.4,18.9
		c0.4-0.1,1-0.1,1.5-0.1c6.2,0,11.4,4.2,11.4,10.8c0,7.4-4.9,12.2-11.4,12.2c-9.2,0-14-7.3-14-19.5c0-14,6.8-24.8,21.1-31.8
		L184.9,71.2z"/>
</g>
<text transform="matrix(1 0 0 1 54.54 163.165)" display="none" fill="#333333" font-family="'SourceSansPro-Bold'" font-size="148.4991">„“</text>
</svg>
