<?xml version="1.0" encoding="utf-8"?>
<!-- Generator: Adobe Illustrator 18.1.1, SVG Export Plug-In . SVG Version: 6.00 Build 0)  -->
<svg version="1.1" id="Ebene_1" xmlns="http://www.w3.org/2000/svg" xmlns:xlink="http://www.w3.org/1999/xlink" x="0px" y="0px"
	 viewBox="0 0 250 250" enable-background="new 0 0 250 250" xml:space="preserve">
<g>
	<path fill="#FFFFFF" d="M125,240c-63.4,0-115-51.6-115-115C10,61.6,61.6,10,125,10c63.4,0,115,51.6,115,115
		C240,188.4,188.4,240,125,240z"/>
	<path fill="#333333" d="M125,15c29.4,0,57,11.4,77.8,32.2S235,95.6,235,125s-11.4,57-32.2,77.8S154.4,235,125,235
		s-57-11.4-77.8-32.2S15,154.4,15,125s11.4-57,32.2-77.8S95.6,15,125,15 M125,5C58.7,5,5,58.7,5,125s53.7,120,120,120
		s120-53.7,120-120S191.3,5,125,5L125,5z"/>
</g>
<path fill="#333333" d="M67.7,161.9h114.6c2.4,0,4.3-1.9,4.3-4.3V84c0-2.4-1.9-4.3-4.3-4.3H67.7c-2.4,0-4.3,1.9-4.3,4.3v73.7
	C63.4,160,65.3,161.9,67.7,161.9z M68.1,85c0-0.3,0.3-0.6,0.6-0.6h112.6c0.3,0,0.6,0.3,0.6,0.6v71.7c0,0.3-0.3,0.6-0.6,0.6H68.7
	c-0.3,0-0.6-0.3-0.6-0.6V85z M195.8,164.2v4.4c0,0.9-0.7,1.7-1.7,1.7H55.8c-0.9,0-1.7-0.7-1.7-1.7v-4.4h58.2c0.3,1,1.2,1.7,2.2,1.7
	h20.9c1.1,0,1.9-0.7,2.2-1.7H195.8z"/>
</svg>
