<?xml version="1.0" encoding="utf-8"?>
<!-- Generator: Adobe Illustrator 18.1.1, SVG Export Plug-In . SVG Version: 6.00 Build 0)  -->
<svg version="1.1" id="Ebene_1" xmlns="http://www.w3.org/2000/svg" xmlns:xlink="http://www.w3.org/1999/xlink" x="0px" y="0px"
	 viewBox="-131 -131 512 512" enable-background="new -131 -131 512 512" xml:space="preserve">
<path fill="#219AB3" d="M39.2,195c-4.2,9.1-9.1,17.1-15.7,24.2c-16.6,17.7-37.3,27.1-61.6,27.9c-17.5,0.7-34.8-1.6-50.8-9.3
	c-26.8-12.6-41.7-33.7-43.2-63.6c0-0.7,0-1.6,0-2.4c16.2,0,32.2,0,48.6,0c0.4,1.8,0.7,3.8,1.1,5.5c3.5,14.9,12.2,25.1,27.3,28.6
	c16,4,30.2,0.2,41.2-12.4c13.3-15.3,15.5-41,4.9-58.3c-7.3-12-18.2-18.2-32.2-18.8c-16-0.9-28.8,4.4-38.1,17.5
	c-0.7,0.9-1.8,1.6-2.7,1.6c-13.7,0.2-27.3,0-41,0c-0.4,0-0.7-0.2-1.3-0.4c7.8-43.9,15.7-88,23.5-132.2c44.6,0,89.1,0,133.9,0
	c0,13.3,0,26.4,0,39.9c-1.1,0-2.2,0-3.3,0c-30.8,0-61.6,0-92.5,0c-2.4,0-3.3,0.7-3.8,3.1c-2.9,16.4-5.8,32.8-8.6,49.2
	c-0.2,0.9-0.2,1.6-0.2,3.3c18.2-18.4,39.9-21.7,63.2-17.5c23.7,4.4,40.1,18.6,50.8,40.8c1.1-2.7,2-4.7,2.9-6.9
	c14-28.8,37.5-43.5,69.2-45c24.2-1.3,45,7.5,63.4,22.2c11.8,9.3,21.5,20.6,31.3,31.9c0.7,0.9,1.6,1.8,2.4,2.9c0.9-1.1,1.8-2,2.7-3.1
	c9.1-10.4,17.7-21.1,28.4-29.9c13.7-11.5,28.8-20.2,46.6-22.8c28.4-4.4,54.1,1.8,74.3,23.3c13.1,13.7,19.5,30.8,21.7,49.4
	c2.4,21.3-0.7,41.9-11.1,61c-13.7,25.3-35.5,38.4-64.1,40.6c-22.8,1.8-43.2-5.5-61.6-18.4c-12.6-8.9-23.3-20-33.7-31.3
	c-1.1-1.1-2-2.4-3.8-4.4c-0.7,1.1-1.3,2.2-2,2.9c-8.9,8.9-17.3,18-26.4,26.4c-12.9,11.8-27.7,20.4-45.2,23.3
	c-29.7,5.1-56.1-1.1-77.8-23.1c-6.4-6.7-11.3-14.2-15.1-22.6C40.1,197.2,39.9,196.3,39.2,195z M236.1,158.9
	c11.1,12.6,22.8,24.4,37.9,31.9c7.1,3.5,14.4,5.8,22.4,6.7c17.5,1.6,31.3-6.4,37.5-22.2c4.4-11.5,4.7-23.5-0.2-35
	c-5.1-12-13.7-20-26.8-22.2c-9.5-1.8-18.8-0.2-27.7,4C261.6,130.7,249.2,144.9,236.1,158.9z M178.9,158.9
	c-9.8-10.4-19.5-20.2-30.8-28.2c-7.3-5.1-14.9-9.5-23.5-11.8c-17.7-4.7-32.6,1.8-41.2,17.7c-6.2,11.5-7.3,23.9-3.3,36.4
	c4.4,13.3,13.7,21.5,27.7,23.9c8.6,1.3,17.3,0.4,25.5-2.9C151.9,187,165.8,173.9,178.9,158.9z"/>
</svg>
